# xmcd
#
# Track frame offsets: 
#        150
#        20303
#        39568
#        55202
#        71813
#        90787
#        108582
#        131624
#        148281
#        164070
#        183244
#        197207
#        213124
#        228795
#        244299
#        260954
#
# Disc length: 3658 seconds
#
# Revision: 0
# Processed by: cddbd v1.5.2PL0 Copyright (c) Steve Scherf et al.
# Submitted via: ExactAudioCopyFreeDBPlugin 1.0
#
DISCID=ec0e4810
DTITLE=Various Artist - American Heartland
DYEAR=2013
DGENRE=Country
TTITLE0=Lonestar - Amazed
TTITLE1=Sara Evans - A Little Bit Stronger
TTITLE2=The Secret Sisters - Tomorrow Will Be Kinder
TTITLE3=Jessica Simpson - These Boots Are Made For Walkin'
TTITLE4=Lauren Alaina - Like My Mother Does
TTITLE5=Miranda Lambert - The House That Built Me
TTITLE6=Alan Jackson - Good Time
TTITLE7=Brooks and Dunn - Cowgirls Don't Cry
TTITLE8=Blake Shelton - Honey Bee
TTITLE9=Mindy McCready - Oh Romeo
TTITLE10=The Henningsens - American Beautiful
TTITLE11=Josh Turner - Your Man
TTITLE12=Ronnie Dunn - She's Actin' Single (I'm Drinkin' Doubles)
TTITLE13=Casey James - Let's Don't Call It A Night
TTITLE14=Keith Whitley - When You Say Nothing At All
TTITLE15=Chris Young and Patty Loveless - Love Don't Let Me Down
EXTD=
EXTT0=
EXTT1=
EXTT2=
EXTT3=
EXTT4=
EXTT5=
EXTT6=
EXTT7=
EXTT8=
EXTT9=
EXTT10=
EXTT11=
EXTT12=
EXTT13=
EXTT14=
EXTT15=
PLAYORDER=
